<svg width="51" height="51" viewBox="0 0 51 51" fill="none" xmlns="http://www.w3.org/2000/svg">
<path d="M27.9583 15.6667C29.9143 15.6667 31.7902 16.4437 33.1732 17.8267C34.5563 19.2098 35.3333 21.0857 35.3333 23.0417C35.3333 23.6936 35.5923 24.3189 36.0534 24.78C36.5144 25.241 37.1397 25.5 37.7917 25.5C38.4437 25.5 39.0689 25.241 39.53 24.78C39.991 24.3189 40.25 23.6936 40.25 23.0417C40.25 19.7817 38.955 16.6553 36.6499 14.3501C34.3447 12.045 31.2183 10.75 27.9583 10.75C27.3063 10.75 26.6811 11.009 26.22 11.47C25.759 11.931 25.5 12.5563 25.5 13.2083C25.5 13.8603 25.759 14.4856 26.22 14.9466C26.6811 15.4076 27.3063 15.6667 27.9583 15.6667Z" fill="black"/>
<path d="M27.9583 5.83331C32.5223 5.83331 36.8993 7.64632 40.1265 10.8735C43.3537 14.1007 45.1667 18.4777 45.1667 23.0416C45.1667 23.6936 45.4257 24.3189 45.8867 24.7799C46.3477 25.241 46.973 25.5 47.625 25.5C48.277 25.5 48.9023 25.241 49.3633 24.7799C49.8243 24.3189 50.0833 23.6936 50.0833 23.0416C50.0833 17.1737 47.7523 11.5461 43.6031 7.3969C39.4538 3.24766 33.8262 0.916641 27.9583 0.916641C27.3063 0.916641 26.6811 1.17564 26.22 1.63667C25.759 2.0977 25.5 2.72298 25.5 3.37497C25.5 4.02697 25.759 4.65225 26.22 5.11328C26.6811 5.57431 27.3063 5.83331 27.9583 5.83331Z" fill="black"/>
<path d="M49.4686 35.1121C49.3334 34.7174 49.1 34.3637 48.7903 34.0842C48.4807 33.8046 48.105 33.6085 47.6986 33.5142L32.9486 30.1463C32.5482 30.0555 32.1315 30.0664 31.7364 30.1781C31.3414 30.2897 30.9806 30.4985 30.6869 30.7854C30.3428 31.105 30.3182 31.1296 28.7203 34.1779C23.4181 31.7347 19.1696 27.4688 16.7482 22.1567C19.8703 20.5833 19.8948 20.5833 20.2144 20.2146C20.5013 19.921 20.7101 19.5601 20.8218 19.1651C20.9334 18.77 20.9444 18.3533 20.8536 17.9529L17.4857 3.37501C17.3914 2.96863 17.1952 2.59294 16.9157 2.28329C16.6361 1.97364 16.2824 1.74022 15.8878 1.60501C15.3137 1.39995 14.7208 1.25174 14.1178 1.1625C13.4964 1.01843 12.8624 0.936091 12.2248 0.916672C9.22568 0.916672 6.34936 2.10808 4.22864 4.22881C2.10791 6.34953 0.916504 9.22585 0.916504 12.225C0.929513 22.2617 4.92233 31.8835 12.0193 38.9805C19.1163 46.0775 28.7382 50.0703 38.7748 50.0833C40.2599 50.0833 41.7304 49.7908 43.1024 49.2225C44.4743 48.6542 45.721 47.8213 46.771 46.7712C47.8211 45.7211 48.6541 44.4745 49.2224 43.1025C49.7907 41.7305 50.0832 40.26 50.0832 38.775C50.0839 38.1493 50.0346 37.5245 49.9357 36.9067C49.8324 36.2961 49.6761 35.6956 49.4686 35.1121ZM38.7748 45.1667C30.0402 45.1602 21.6651 41.6874 15.4888 35.5111C9.3124 29.3347 5.83968 20.9597 5.83317 12.225C5.83965 10.5318 6.51513 8.90984 7.7124 7.71257C8.90967 6.5153 10.5317 5.83981 12.2248 5.83334H13.0361L15.6665 17.24L14.339 17.9283C12.2248 19.0346 10.5532 19.9196 11.4382 21.8371C12.8793 25.9169 15.2112 29.6244 18.2643 32.6903C21.3175 35.7563 25.0153 38.1035 29.089 39.5617C31.154 40.3975 31.9653 38.8488 33.0715 36.71L33.7844 35.3579L45.1665 37.9638V38.775C45.16 40.4682 44.4845 42.0902 43.2873 43.2874C42.09 44.4847 40.468 45.1602 38.7748 45.1667Z" fill="black"/>
</svg>
