<svg width="56" height="56" viewBox="0 0 56 56" fill="none" xmlns="http://www.w3.org/2000/svg">
<path d="M13.1733 29.553C12.1434 28.6707 12.0305 27.1277 12.9219 26.1072C13.8133 25.0866 15.3706 24.9748 16.4004 25.8581L24.0026 32.39L39.0562 17.6287C40.0225 16.6773 41.5847 16.6814 42.5449 17.6379C43.505 18.5954 43.5009 20.1435 42.5346 21.0949L25.8952 37.4125C24.9925 38.3466 23.498 38.4238 22.4998 37.5679L13.1733 29.553ZM27.7919 0H27.795V0.0102198C35.4742 0.011188 42.4218 3.09119 47.4442 8.06871V8.07786C52.4644 13.0536 55.5726 19.9331 55.5746 27.5322H55.5838V27.5424H55.5746C55.5735 35.1517 52.4644 42.0363 47.4421 47.013H47.4318C42.4106 51.9876 35.469 55.0676 27.7991 55.0696V55.0787H27.7888V55.0696C20.1108 55.0685 13.1631 51.9875 8.1407 47.0109C3.11953 42.0343 0.0123761 35.1528 0.0103134 27.5465H0V27.5363H0.0103134C0.011399 19.928 3.11953 13.0434 8.14281 8.06667C13.1641 3.09119 20.1097 0.01221 27.7847 0.0102198V0H27.7919ZM27.795 4.89233V4.90255H27.7847V4.89233C21.4884 4.89437 15.7788 7.43149 11.6408 11.533C7.49969 15.6345 4.93817 21.2942 4.93719 27.5364H4.9475V27.5466H4.93719C4.93925 33.7867 7.49964 39.4434 11.6387 43.5449C15.7778 47.6474 21.4895 50.1866 27.7889 50.1866V50.1774H27.7992V50.1866C34.0996 50.1855 39.8102 47.6494 43.9482 43.552L43.9441 43.547C48.0842 39.4455 50.6467 33.7857 50.6467 27.5425H50.6375V27.5323H50.6467C50.6457 21.2892 48.0863 15.6304 43.9513 11.5299L43.9462 11.535C39.8071 7.43154 34.0954 4.8933 27.795 4.89233Z" fill="#EFE611"/>
</svg>
