<svg width="33" height="33" viewBox="0 0 33 33" fill="none" xmlns="http://www.w3.org/2000/svg">
<path d="M16.4604 0C11.9887 0 11.4304 0.0203886 9.67462 0.0978652C7.92159 0.17942 6.72821 0.452627 5.67885 0.856321C4.59658 1.27225 3.67754 1.83089 2.76261 2.73751C1.84768 3.64412 1.28254 4.55345 0.864173 5.62725C0.456777 6.66707 0.179693 7.84961 0.0987626 9.58671C0.0164604 11.3265 0 11.8797 0 16.3109C0 20.742 0.0205755 21.2952 0.0987626 23.035C0.181065 24.7708 0.456777 25.9547 0.864173 26.9945C1.27746 28.083 1.92532 29.0692 2.76261 29.8842C3.58464 30.7145 4.57998 31.3566 5.67885 31.7654C6.72958 32.1678 7.92296 32.4437 9.67462 32.5239C11.4304 32.6054 11.9887 32.6217 16.4604 32.6217C20.9322 32.6217 21.4905 32.6013 23.2463 32.5239C24.9979 32.4423 26.1927 32.1678 27.242 31.7654C28.3403 31.3554 29.3354 30.7135 30.1583 29.8842C30.9964 29.0699 31.6444 28.0835 32.0567 26.9945C32.4627 25.9547 32.7412 24.7708 32.8221 23.035C32.9044 21.2952 32.9209 20.742 32.9209 16.3109C32.9209 11.8797 32.9003 11.3265 32.8221 9.58671C32.7398 7.85097 32.4627 6.66571 32.0567 5.62725C31.6432 4.5388 30.9954 3.55268 30.1583 2.73751C29.3368 1.90652 28.3413 1.26435 27.242 0.856321C26.1927 0.452627 24.9979 0.17806 23.2463 0.0978652C21.4905 0.0163109 20.9322 0 16.4604 0ZM16.4604 2.93596C20.854 2.93596 21.378 2.9577 23.1132 3.03246C24.7181 3.10722 25.5891 3.37091 26.168 3.59655C26.9389 3.8915 27.4848 4.2449 28.0637 4.81442C28.6384 5.38531 28.9951 5.92764 29.2927 6.69153C29.5177 7.26513 29.7865 8.12825 29.8592 9.71856C29.9374 11.4394 29.9553 11.9559 29.9553 16.3109C29.9553 20.6659 29.9347 21.1837 29.8538 22.9032C29.7701 24.4935 29.5026 25.3566 29.2763 25.9302C29.0085 26.638 28.5876 27.2792 28.0431 27.8087C27.5111 28.3487 26.8645 28.7647 26.1502 29.0266C25.574 29.2495 24.6893 29.5159 23.0844 29.5879C21.3368 29.6654 20.8225 29.6831 16.4193 29.6831C12.0148 29.6831 11.5004 29.6627 9.75418 29.5825C8.14792 29.4996 7.26317 29.2345 6.68705 29.0102C5.97227 28.7482 5.32588 28.3306 4.79548 27.7883C4.24485 27.2646 3.82254 26.623 3.56094 25.9125C3.33461 25.3417 3.0685 24.4649 2.98483 22.8746C2.9231 21.162 2.90115 20.6332 2.90115 16.2905C2.90115 11.9464 2.9231 11.4162 2.98483 9.68322C3.0685 8.09291 3.33461 7.21756 3.56094 6.64668C3.849 5.87191 4.21799 5.34181 4.79548 4.76957C5.37022 4.20005 5.90656 3.83305 6.68705 3.54897C7.26317 3.32334 8.12872 3.05829 9.73361 2.97673C11.4825 2.91557 11.9969 2.89518 16.3987 2.89518L16.4604 2.93596ZM16.4604 7.93524C15.3505 7.93524 14.2513 8.15188 13.2258 8.57279C12.2003 8.99371 11.2685 9.61065 10.4837 10.3884C9.69878 11.1662 9.07618 12.0895 8.65141 13.1057C8.22663 14.1218 8.00801 15.211 8.00801 16.3109C8.00801 17.4108 8.22663 18.4999 8.65141 19.5161C9.07618 20.5323 9.69878 21.4556 10.4837 22.2333C11.2685 23.0111 12.2003 23.628 13.2258 24.0489C14.2513 24.4699 15.3505 24.6865 16.4604 24.6865C18.7022 24.6865 20.8521 23.8041 22.4372 22.2333C24.0224 20.6626 24.9129 18.5322 24.9129 16.3109C24.9129 14.0895 24.0224 11.9591 22.4372 10.3884C20.8521 8.81767 18.7022 7.93524 16.4604 7.93524ZM16.4604 21.7478C13.429 21.7478 10.9736 19.3148 10.9736 16.3109C10.9736 13.307 13.429 10.8739 16.4604 10.8739C19.4919 10.8739 21.9473 13.307 21.9473 16.3109C21.9473 19.3148 19.4919 21.7478 16.4604 21.7478ZM27.2228 7.60494C27.2038 8.11143 26.9873 8.59088 26.619 8.94253C26.2506 9.29418 25.7591 9.49065 25.2476 9.49065C24.7361 9.49065 24.2445 9.29418 23.8762 8.94253C23.5078 8.59088 23.2914 8.11143 23.2723 7.60494C23.2723 7.08583 23.4804 6.58799 23.8509 6.22092C24.2213 5.85385 24.7237 5.64764 25.2476 5.64764C25.7714 5.64764 26.2739 5.85385 26.6443 6.22092C27.0147 6.58799 27.2228 7.08583 27.2228 7.60494Z" fill="white"/>
</svg>
