<svg width="38" height="39" viewBox="0 0 38 39" fill="none" xmlns="http://www.w3.org/2000/svg">
<path d="M19.3531 11.9914C20.1761 11.9914 20.9654 12.3154 21.5474 12.8921C22.1293 13.4687 22.4563 14.2509 22.4563 15.0664C22.4563 15.3383 22.5653 15.599 22.7593 15.7912C22.9532 15.9834 23.2163 16.0914 23.4907 16.0914C23.765 16.0914 24.0281 15.9834 24.2221 15.7912C24.4161 15.599 24.5251 15.3383 24.5251 15.0664C24.5251 13.7072 23.9802 12.4036 23.0102 11.4425C22.0403 10.4814 20.7248 9.94141 19.3531 9.94141C19.0787 9.94141 18.8156 10.0494 18.6217 10.2416C18.4277 10.4338 18.3187 10.6946 18.3187 10.9664C18.3187 11.2383 18.4277 11.499 18.6217 11.6912C18.8156 11.8834 19.0787 11.9914 19.3531 11.9914Z" fill="white"/>
<path d="M18.8134 8.1584C20.7338 8.1584 22.5755 8.91433 23.9334 10.2599C25.2913 11.6055 26.0542 13.4305 26.0542 15.3334C26.0542 15.6052 26.1632 15.866 26.3572 16.0582C26.5511 16.2504 26.8143 16.3584 27.0886 16.3584C27.3629 16.3584 27.626 16.2504 27.82 16.0582C28.014 15.866 28.123 15.6052 28.123 15.3334C28.123 12.8868 27.1422 10.5404 25.3963 8.81034C23.6504 7.08032 21.2825 6.1084 18.8134 6.1084C18.5391 6.1084 18.276 6.21639 18.082 6.40861C17.888 6.60084 17.779 6.86155 17.779 7.1334C17.779 7.40525 17.888 7.66596 18.082 7.85818C18.276 8.05041 18.5391 8.1584 18.8134 8.1584Z" fill="white"/>
<path d="M27.8644 20.3661C27.8075 20.2016 27.7092 20.0541 27.5789 19.9376C27.4487 19.821 27.2906 19.7392 27.1196 19.6999L20.9132 18.2956C20.7447 18.2578 20.5694 18.2624 20.4031 18.3089C20.2369 18.3555 20.0851 18.4425 19.9615 18.5621C19.8167 18.6954 19.8064 18.7056 19.134 19.9766C16.903 18.958 15.1154 17.1793 14.0965 14.9644C15.4102 14.3084 15.4205 14.3084 15.555 14.1546C15.6757 14.0322 15.7636 13.8818 15.8106 13.7171C15.8575 13.5523 15.8621 13.3786 15.8239 13.2116L14.4068 7.1334C14.3671 6.96396 14.2846 6.80732 14.167 6.67821C14.0494 6.5491 13.9005 6.45178 13.7345 6.3954C13.4929 6.3099 13.2434 6.24811 12.9897 6.2109C12.7282 6.15083 12.4615 6.1165 12.1932 6.1084C10.9312 6.1084 9.72096 6.60516 8.82862 7.48939C7.93628 8.37362 7.43496 9.5729 7.43496 10.8234C7.44044 15.0082 9.1205 19.02 12.1067 21.9791C15.0929 24.9382 19.1416 26.603 23.3647 26.6084C23.9896 26.6084 24.6083 26.4864 25.1856 26.2495C25.7629 26.0125 26.2875 25.6652 26.7293 25.2274C27.1711 24.7896 27.5216 24.2698 27.7608 23.6978C27.9999 23.1257 28.123 22.5126 28.123 21.8934C28.1233 21.6325 28.1025 21.372 28.0609 21.1144C28.0174 20.8598 27.9517 20.6094 27.8644 20.3661ZM23.3647 24.5584C19.6894 24.5557 16.1654 23.1077 13.5666 20.5325C10.9677 17.9573 9.5065 14.4653 9.50376 10.8234C9.50649 10.1174 9.79071 9.44114 10.2945 8.94194C10.7983 8.44274 11.4808 8.1611 12.1932 8.1584H12.5346L13.6414 12.9144L13.0828 13.2014C12.1932 13.6626 11.4898 14.0316 11.8622 14.8311C12.4686 16.5322 13.4498 18.0781 14.7344 19.3564C16.0191 20.6347 17.5751 21.6134 19.2892 22.2214C20.1581 22.5699 20.4994 21.9241 20.9649 21.0324L21.2649 20.4686L26.0542 21.5551V21.8934C26.0514 22.5994 25.7672 23.2757 25.2634 23.7749C24.7596 24.2741 24.0772 24.5557 23.3647 24.5584Z" fill="white"/>
<path fill-rule="evenodd" clip-rule="evenodd" d="M37.1034 15.9007C37.1034 15.9015 37.1034 15.9024 37.1034 15.9032C37.1157 16.9539 37.1305 18.229 37.0294 19.6077C36.9577 20.5861 36.8276 21.6167 36.5969 22.6562C36.282 24.0759 35.8097 25.3709 35.1877 26.5098C34.4504 27.8671 33.4847 29.0425 32.317 30.015C29.0631 32.7141 25.1689 33.0885 21.0096 33.0885C20.42 33.0885 19.8246 33.0799 19.2245 33.0712C19.018 33.0682 18.8109 33.0652 18.6033 33.0625L18.564 33.0573H18.5535L18.5141 33.0625L18.4907 33.0628C17.4334 33.0783 16.3888 33.0936 15.3625 33.0833L10.3793 38.107C10.1117 38.3775 9.75215 38.5231 9.38478 38.5231C9.20634 38.5231 9.02527 38.4867 8.8547 38.4191C8.32726 38.2058 7.98612 37.7014 7.98612 37.1397V31.9106C6.86825 31.4633 5.80285 30.8497 4.79519 30.0176C3.62746 29.0451 2.66178 27.8697 1.9244 26.5124C1.30249 25.3735 0.830147 24.0785 0.515252 22.6588C-0.0408451 20.1557 -0.012218 17.702 0.00877279 15.9028L0.00879723 15.9007C0.0507831 12.2707 0.108514 7.29637 3.97384 3.65079C5.68477 2.03862 7.82605 1.00371 10.5158 0.494052C12.7833 0.0633476 15.2337 0.0365191 17.6037 0.0105712L17.6193 0.0104011H17.7741C17.902 0.00778742 18.0299 0.00648731 18.1585 0.00518044C18.2858 0.00388697 18.4137 0.00258687 18.543 0H18.5744C18.7027 0.00259357 18.8303 0.0038937 18.9576 0.00519049C19.0855 0.00649399 19.2131 0.00779412 19.3407 0.0104011H19.4955L19.511 0.0105712C21.881 0.0365191 24.3315 0.0633476 26.599 0.494052C29.2914 1.00371 31.4326 2.03862 33.1409 3.65079C35.7212 6.08441 36.6048 9.11016 36.9196 11.9328C37.0761 13.3366 37.092 14.6901 37.1059 15.8955C37.1059 15.8964 37.1059 15.8972 37.1059 15.898C37.106 15.8986 37.106 15.8992 37.106 15.8998C37.106 15.9001 37.106 15.9004 37.106 15.9007L37.1034 15.8981L37.1034 15.8998C37.1034 15.9001 37.1034 15.9005 37.1034 15.9007ZM34.3899 14.8466C34.3099 11.4423 33.9335 8.08981 31.2805 5.58763L31.2799 5.58707C30.0034 4.38232 28.3583 3.54935 26.0927 3.12047L26.091 3.12015C24.1028 2.7425 21.9011 2.71081 19.4812 2.68432L19.4806 2.68431H19.3129L19.2851 2.68375C19.174 2.68148 19.0607 2.6803 18.9308 2.67897L18.9241 2.6789C18.8119 2.67776 18.6868 2.67649 18.5585 2.67411C18.4294 2.67648 18.3041 2.67776 18.1915 2.6789L18.1842 2.67897C18.0541 2.6803 17.9407 2.68148 17.8297 2.68375L17.8019 2.68431H17.6342L17.6335 2.68432C15.2137 2.71081 13.012 2.7425 11.0238 3.12015L11.0226 3.12038C8.7604 3.54902 7.11438 4.38171 5.83423 5.58763M34.3899 14.8466L34.4051 15.9308C34.4051 15.9318 34.4051 15.9329 34.4052 15.934C34.4264 17.7506 34.4423 19.9151 33.9614 22.0819C33.6936 23.2894 33.3019 24.3447 32.8145 25.2373L32.8117 25.2424C32.2353 26.3035 31.4868 27.213 30.5831 27.9661C28.1151 30.0122 25.0862 30.4146 21.0096 30.4146C20.4415 30.4146 19.8746 30.4064 19.2805 30.3977C19.1226 30.3955 18.9627 30.3931 18.8004 30.3909L18.7431 30.3834H18.3743L18.3151 30.3912C17.3011 30.406 16.3348 30.419 15.3899 30.4095L14.2425 30.398L10.6846 33.9848V30.1065L8.99639 29.4311C8.12987 29.0844 7.30986 28.6126 6.52721 27.9671C5.62438 27.2144 4.8765 26.3054 4.30045 25.245L4.29768 25.2399C3.81029 24.3473 3.41862 23.2924 3.15078 22.0848L3.15058 22.0839C2.66962 19.919 2.68579 17.7539 2.70703 15.9337L2.70705 15.9316C2.75063 12.1642 2.89961 8.35617 5.83333 5.58848" fill="white"/>
</svg>
