<svg width="36" height="35" viewBox="0 0 36 35" fill="none" xmlns="http://www.w3.org/2000/svg">
<path fill-rule="evenodd" clip-rule="evenodd" d="M26.2594 20.9812C25.8234 20.7703 23.6193 19.7153 23.2075 19.5747C22.7958 19.434 22.5051 19.3637 22.1902 19.7857C21.8996 20.2076 21.0276 21.1922 20.7612 21.4735C20.4948 21.7548 20.2283 21.8017 19.7924 21.5907C19.3564 21.3798 17.9031 20.9109 16.1834 19.434C14.8513 18.2853 13.9551 16.8553 13.6887 16.4333C13.4222 15.9879 13.6644 15.7535 13.8824 15.5425C14.0762 15.355 14.3184 15.0268 14.5606 14.7924C14.7786 14.5345 14.8513 14.3469 14.9966 14.0656C15.1419 13.7843 15.0693 13.5264 14.9482 13.3155C14.827 13.1045 13.9309 10.9712 13.5676 10.1038C13.2042 9.25987 12.8409 9.37709 12.5503 9.35364C12.2838 9.3302 11.9932 9.3302 11.7025 9.3302C11.4119 9.3302 10.9275 9.44741 10.5157 9.86938C10.1039 10.3148 8.94134 11.3463 8.94134 13.4796C8.94134 15.6129 10.5399 17.6758 10.7821 17.9571C11.0001 18.2384 13.9309 22.6222 18.436 24.4976C19.5017 24.9431 20.3494 25.2009 20.9792 25.4119C22.0449 25.7401 23.038 25.6932 23.7888 25.576C24.6608 25.4588 26.4289 24.5211 26.8164 23.5131C27.1798 22.505 27.1798 21.6376 27.0829 21.4501C26.9618 21.2626 26.6711 21.1688 26.2351 20.9344L26.2594 20.9812ZM18.0969 31.7883C15.4326 31.7883 12.7925 31.0851 10.5157 29.7723L9.98284 29.4675L4.33935 30.8975L5.84105 25.576L5.47774 25.0368C3.97603 22.7394 3.20096 20.0904 3.20096 17.3711C3.20096 9.42397 9.88596 2.95378 18.0969 2.95378C22.0691 2.95378 25.8234 4.45411 28.633 7.17347C31.4427 9.89283 32.9928 13.5264 32.9928 17.3711C32.9928 25.3181 26.3078 31.7883 18.0969 31.7883ZM30.7645 5.11051C27.3735 1.82853 22.8684 0.0234375 18.0969 0.0234375C8.21471 0.0234375 0.173334 7.80642 0.173334 17.3711C0.173334 20.4186 0.996848 23.4193 2.57121 26.0449L0.0280075 35.0234L9.52264 32.6088C12.1385 33.992 15.0935 34.7187 18.0969 34.7187C27.9791 34.7187 36.0204 26.9357 36.0204 17.3711C36.0204 12.7294 34.1554 8.36905 30.7645 5.11051Z" fill="white"/>
</svg>
