<svg width="27" height="27" viewBox="0 0 27 27" fill="none" xmlns="http://www.w3.org/2000/svg">
<path d="M13.5 0C9.95481 0.00187333 6.55234 1.3841 4.02607 3.84871V0H2.22419V7.14201H9.43169V5.35651H5.05578C6.14802 4.2284 7.459 3.33058 8.91005 2.71694C10.3611 2.1033 11.9223 1.78648 13.5 1.7855C19.9501 1.7855 25.1981 6.98578 25.1981 13.3773C25.1981 19.7689 19.9501 24.9691 13.5 24.9691C7.04984 24.9691 1.80188 19.7689 1.80188 13.3773H0C-3.32345e-06 16.0231 0.791755 18.6095 2.27515 20.8094C3.75855 23.0093 5.86696 24.7239 8.33376 25.7364C10.8006 26.7489 13.515 27.0138 16.1337 26.4976C18.7525 25.9814 21.1579 24.7074 23.0459 22.8365C24.9339 20.9657 26.2197 18.5821 26.7406 15.9871C27.2615 13.3922 26.9942 10.7024 25.9724 8.25804C24.9506 5.81365 23.2203 3.7244 21.0002 2.25448C18.7801 0.784561 16.17 -3.29325e-06 13.5 0Z" fill="white"/>
<path d="M12.585 5.35376L12.5548 15.1768H19.7925V13.3913H14.3622L14.3868 5.35923L12.585 5.35376Z" fill="white"/>
</svg>
