<svg width="29" height="30" viewBox="0 0 29 30" fill="none" xmlns="http://www.w3.org/2000/svg">
<path d="M10.6283 14.4444C10.5861 14.4444 10.558 14.4444 10.5158 14.4444C10.4455 14.4305 10.3471 14.4305 10.2628 14.4444C6.18631 14.3191 3.10787 11.1433 3.10787 7.22918C3.10787 3.24547 6.38311 0 10.4033 0C14.4235 0 17.6988 3.24547 17.6988 7.22918C17.6847 11.1433 14.5922 14.3191 10.6704 14.4444C10.6564 14.4444 10.6423 14.4444 10.6283 14.4444ZM10.4033 2.08936C7.54982 2.08936 5.21639 4.40158 5.21639 7.22918C5.21639 10.015 7.40925 12.2576 10.2066 12.3551C10.2909 12.3412 10.4736 12.3412 10.6564 12.3551C13.4114 12.2297 15.5762 9.98714 15.5902 7.22918C15.5902 4.40158 13.2568 2.08936 10.4033 2.08936Z" fill="white"/>
<path d="M21.002 14.6256C20.9598 14.6256 20.9176 14.6256 20.8755 14.6117C20.2991 14.6674 19.7087 14.2634 19.6525 13.6923C19.5963 13.1213 19.9477 12.6059 20.524 12.5362C20.6927 12.5223 20.8755 12.5223 21.0301 12.5223C23.0824 12.4109 24.6848 10.7394 24.6848 8.69181C24.6848 6.57459 22.9559 4.86132 20.8192 4.86132C20.2429 4.87525 19.765 4.40166 19.765 3.83057C19.765 3.25948 20.2429 2.78589 20.8192 2.78589C24.1085 2.78589 26.7934 5.44634 26.7934 8.70574C26.7934 11.9094 24.2631 14.5002 21.0441 14.6256C21.0301 14.6256 21.016 14.6256 21.002 14.6256Z" fill="white"/>
<path d="M10.641 29.669C7.88586 29.669 5.11667 28.9726 3.02221 27.5797C1.06832 26.2982 0 24.5431 0 22.6348C0 20.7266 1.06832 18.9576 3.02221 17.6622C7.23925 14.8903 14.0708 14.8903 18.2598 17.6622C20.1996 18.9436 21.282 20.6987 21.282 22.607C21.282 24.5153 20.2137 26.2843 18.2598 27.5797C16.1512 28.9726 13.3961 29.669 10.641 29.669ZM4.18892 19.4172C2.83947 20.3087 2.10852 21.4509 2.10852 22.6488C2.10852 23.8327 2.85353 24.9749 4.18892 25.8525C7.68907 28.1786 13.5929 28.1786 17.093 25.8525C18.4425 24.961 19.1735 23.8188 19.1735 22.6209C19.1735 21.4369 18.4284 20.2948 17.093 19.4172C13.5929 17.105 7.68907 17.105 4.18892 19.4172Z" fill="white"/>
<path d="M23.5319 27.1618C23.0399 27.1618 22.6042 26.8275 22.5058 26.3261C22.3933 25.755 22.7588 25.2117 23.321 25.0864C24.2066 24.9053 25.0219 24.5571 25.6545 24.0696C26.4557 23.4706 26.8915 22.7184 26.8915 21.9245C26.8915 21.1305 26.4557 20.3784 25.6685 19.7933C25.05 19.3197 24.2769 18.9854 23.3632 18.7765C22.8009 18.6511 22.4355 18.094 22.562 17.5229C22.6885 16.9657 23.2508 16.6036 23.8271 16.7289C25.036 16.9936 26.0902 17.4672 26.9477 18.1218C28.255 19.0969 29 20.4759 29 21.9245C29 23.3731 28.2409 24.7521 26.9336 25.741C26.0621 26.4096 24.9657 26.8972 23.7568 27.1339C23.6725 27.1618 23.6022 27.1618 23.5319 27.1618Z" fill="white"/>
</svg>
