<svg width="20" height="11" viewBox="0 0 20 11" fill="none" xmlns="http://www.w3.org/2000/svg">
<path d="M0.236998 1.86758C0.236355 1.53847 0.350977 1.21952 0.560967 0.966103C0.679214 0.823474 0.82444 0.705575 0.988322 0.619157C1.1522 0.532739 1.33152 0.479501 1.51601 0.462491C1.7005 0.445482 1.88653 0.465035 2.06345 0.520032C2.24037 0.575028 2.40471 0.664386 2.54704 0.78299L10.0969 7.09335L17.6609 1.00836C17.805 0.891358 17.9708 0.803983 18.1487 0.751258C18.3267 0.698533 18.5133 0.681498 18.6979 0.701132C18.8824 0.720766 19.0613 0.776682 19.2242 0.865666C19.3871 0.95465 19.5307 1.07495 19.647 1.21965C19.7752 1.36538 19.8719 1.53605 19.9311 1.72094C19.9902 1.90584 20.0105 2.10096 19.9907 2.29406C19.9708 2.48716 19.9113 2.67408 19.8158 2.84309C19.7203 3.01209 19.5909 3.15953 19.4357 3.27615L10.9843 10.0795C10.7323 10.2867 10.4161 10.3999 10.0899 10.3999C9.76363 10.3999 9.44749 10.2867 9.19545 10.0795L0.744081 3.03669C0.573621 2.89539 0.438872 2.71589 0.350768 2.51276C0.262664 2.30963 0.223686 2.08859 0.236998 1.86758Z" fill="white"/>
</svg>
