<svg width="33" height="65" viewBox="0 0 33 65" fill="none" xmlns="http://www.w3.org/2000/svg">
<path d="M27.8382 64.3639C28.9036 64.3659 29.9361 63.9983 30.7565 63.3246C31.2182 62.9453 31.5999 62.4795 31.8796 61.9538C32.1594 61.428 32.3317 60.8528 32.3868 60.261C32.4419 59.6692 32.3786 59.0724 32.2005 58.5049C32.0225 57.9374 31.7332 57.4102 31.3493 56.9536L10.921 32.7348L30.6197 8.4708C30.9984 8.00862 31.2813 7.47681 31.452 6.90595C31.6227 6.3351 31.6778 5.73644 31.6143 5.1444C31.5507 4.55236 31.3697 3.9786 31.0816 3.4561C30.7936 2.9336 30.4041 2.47267 29.9357 2.0998C29.4639 1.68845 28.9114 1.37818 28.3129 1.18846C27.7143 0.998734 27.0827 0.933652 26.4575 0.997293C25.8324 1.06094 25.2273 1.25193 24.6802 1.55829C24.1331 1.86465 23.6558 2.27975 23.2783 2.77756L1.25409 29.8882C0.58342 30.6967 0.216778 31.7108 0.216778 32.7574C0.216778 33.804 0.58342 34.8181 1.25409 35.6266L24.0535 62.7372C24.5109 63.284 25.092 63.7163 25.7496 63.9989C26.4071 64.2815 27.1227 64.4066 27.8382 64.3639Z" fill="#EFE611"/>
</svg>
