<svg width="7" height="11" viewBox="0 0 7 11" fill="none" xmlns="http://www.w3.org/2000/svg">
<path d="M1.37921 10.9723C1.1976 10.9727 1.0216 10.909 0.881767 10.7924C0.803063 10.7268 0.738005 10.6461 0.690319 10.5551C0.642632 10.4641 0.613255 10.3646 0.603869 10.2621C0.594483 10.1597 0.605272 10.0564 0.63562 9.95817C0.665968 9.85993 0.715276 9.76869 0.780723 9.68966L4.26284 5.49759L0.905085 1.29769C0.840521 1.21769 0.792307 1.12564 0.763212 1.02683C0.734118 0.928023 0.724718 0.824401 0.735553 0.721924C0.746387 0.619446 0.777242 0.520133 0.826344 0.429694C0.875447 0.339254 0.941828 0.25947 1.02167 0.194929C1.10209 0.123729 1.19627 0.0700243 1.2983 0.0371845C1.40032 0.00434478 1.50799 -0.00692039 1.61455 0.00409544C1.7211 0.0151113 1.82425 0.0481705 1.9175 0.101199C2.01076 0.154227 2.09212 0.226078 2.15647 0.312245L5.91063 5.00486C6.02495 5.1448 6.08745 5.32034 6.08745 5.5015C6.08745 5.68265 6.02495 5.85819 5.91063 5.99813L2.02434 10.6907C1.94636 10.7854 1.84732 10.8602 1.73523 10.9091C1.62314 10.9581 1.50117 10.9797 1.37921 10.9723Z" fill="white" fill-opacity="0.7"/>
</svg>
